<svg width="36" height="37" xmlns="http://www.w3.org/2000/svg" xmlns:xlink="http://www.w3.org/1999/xlink" xmlns:svgjs="http://svgjs.com/svgjs" viewBox="40 486 36 37"><svg width="32" height="33" xmlns="http://www.w3.org/2000/svg" xmlns:xlink="http://www.w3.org/1999/xlink" xmlns:svgjs="http://svgjs.com/svgjs" viewBox="0 0 32.017 33.017" stroke-miterlimit="100" stroke="#9c7c49" x="44" y="486"><svg xmlns="http://www.w3.org/2000/svg" xmlns:xlink="http://www.w3.org/1999/xlink" width="32" height="33"><path paint-order="stroke fill markers" fill-rule="evenodd" d="M30.793 1.337c-1.16-1.16-5.167.95-6.326 2.109l-18.77 18.77C4.44 23.47-1.036 30.66.216 31.912c1.252 1.252 8.442-4.224 9.697-5.479l18.77-18.77c1.159-1.16 3.268-5.167 2.109-6.326z"/></svg></svg><svg width="12" height="22" xmlns="http://www.w3.org/2000/svg" xmlns:xlink="http://www.w3.org/1999/xlink" xmlns:svgjs="http://svgjs.com/svgjs" viewBox="0 0 12.017 22" stroke-miterlimit="100" stroke="#9c7c49" x="58" y="500"><svg xmlns="http://www.w3.org/2000/svg" xmlns:xlink="http://www.w3.org/1999/xlink" width="12" height="22"><path paint-order="stroke fill markers" fill-rule="evenodd" d="M.605 7.741l4.31 4.311 4.806 9.023 2.142-.034L7.737.607.605 7.741"/></svg></svg><svg width="21" height="12" xmlns="http://www.w3.org/2000/svg" xmlns:xlink="http://www.w3.org/1999/xlink" xmlns:svgjs="http://svgjs.com/svgjs" viewBox="0 0 21.017 12.017" stroke-miterlimit="100" stroke="#9c7c49" x="41" y="492"><svg xmlns="http://www.w3.org/2000/svg" xmlns:xlink="http://www.w3.org/1999/xlink" width="21" height="12"><path paint-order="stroke fill markers" fill-rule="evenodd" d="M20.516 4.39L.088.265.054 2.407l9.022 4.805 4.313 4.313 7.127-7.135"/></svg></svg><svg width="6" height="10" xmlns="http://www.w3.org/2000/svg" xmlns:xlink="http://www.w3.org/1999/xlink" xmlns:svgjs="http://svgjs.com/svgjs" viewBox="0 0 6.017 10.017" stroke-miterlimit="100" stroke="#9c7c49" x="48" y="513"><svg xmlns="http://www.w3.org/2000/svg" xmlns:xlink="http://www.w3.org/1999/xlink" width="6" height="10"><path paint-order="stroke fill markers" fill-rule="evenodd" d="M4.652.695l.973 7.512-2.028.923L.284 3.607 4.652.695"/></svg></svg><svg width="9" height="6" xmlns="http://www.w3.org/2000/svg" xmlns:xlink="http://www.w3.org/1999/xlink" xmlns:svgjs="http://svgjs.com/svgjs" viewBox="0 0 9.017 6.017" stroke-miterlimit="100" stroke="#9c7c49" x="40" y="508"><svg xmlns="http://www.w3.org/2000/svg" width="9" height="6"><path paint-order="stroke fill markers" fill-rule="evenodd" d="M8.435 1.476L.923.503 0 2.531l5.523 3.313 2.912-4.368"/></svg></svg></svg>