<svg xmlns="http://www.w3.org/2000/svg" width="42.5" height="47.5" viewBox="0 0 42.5 47.5">
  <g id="Group_12526" data-name="Group 12526" transform="translate(-41.25 -151.25)">
    <g id="Group_12475" data-name="Group 12475" transform="translate(42.13 151.657)">
      <g id="calendar" transform="translate(0 0)">
        <rect id="Rectangle_3104" data-name="Rectangle 3104" width="41" height="41" rx="2" transform="translate(-0.13 5.343)" fill="none" stroke="#9c7c49" stroke-linecap="round" stroke-linejoin="round" stroke-width="1.5"/>
        <line id="Line_136" data-name="Line 136" y2="9" transform="translate(28.87 0.343)" fill="none" stroke="#9c7c49" stroke-linecap="round" stroke-linejoin="round" stroke-width="1.5"/>
        <line id="Line_137" data-name="Line 137" y2="9" transform="translate(10.87 0.343)" fill="none" stroke="#9c7c49" stroke-linecap="round" stroke-linejoin="round" stroke-width="1.5"/>
        <line id="Line_138" data-name="Line 138" x2="41" transform="translate(-0.13 18.343)" fill="none" stroke="#9c7c49" stroke-linecap="round" stroke-linejoin="round" stroke-width="1.5"/>
      </g>
    </g>
    <g id="Group_12525" data-name="Group 12525" transform="translate(12457.375 9605.375)">
      <circle id="Ellipse_267" data-name="Ellipse 267" cx="1.5" cy="1.5" r="1.5" transform="translate(-12408.375 -9425.375)" fill="#9c7c49"/>
      <circle id="Ellipse_268" data-name="Ellipse 268" cx="1.5" cy="1.5" r="1.5" transform="translate(-12408.375 -9420.375)" fill="#9c7c49"/>
      <circle id="Ellipse_269" data-name="Ellipse 269" cx="1.5" cy="1.5" r="1.5" transform="translate(-12408.375 -9415.375)" fill="#9c7c49"/>
      <circle id="Ellipse_270" data-name="Ellipse 270" cx="1.5" cy="1.5" r="1.5" transform="translate(-12388.375 -9430.375)" fill="#9c7c49"/>
      <circle id="Ellipse_271" data-name="Ellipse 271" cx="1.5" cy="1.5" r="1.5" transform="translate(-12388.375 -9425.375)" fill="#9c7c49"/>
      <circle id="Ellipse_272" data-name="Ellipse 272" cx="1.5" cy="1.5" r="1.5" transform="translate(-12388.375 -9420.375)" fill="#9c7c49"/>
      <circle id="Ellipse_273" data-name="Ellipse 273" cx="1.5" cy="1.5" r="1.5" transform="translate(-12388.375 -9415.375)" fill="#9c7c49"/>
      <circle id="Ellipse_274" data-name="Ellipse 274" cx="1.5" cy="1.5" r="1.5" transform="translate(-12383.375 -9430.375)" fill="#9c7c49"/>
      <circle id="Ellipse_275" data-name="Ellipse 275" cx="1.5" cy="1.5" r="1.5" transform="translate(-12383.375 -9425.375)" fill="#9c7c49"/>
      <circle id="Ellipse_276" data-name="Ellipse 276" cx="1.5" cy="1.5" r="1.5" transform="translate(-12383.375 -9420.375)" fill="#9c7c49"/>
      <circle id="Ellipse_277" data-name="Ellipse 277" cx="1.5" cy="1.5" r="1.5" transform="translate(-12398.375 -9430.375)" fill="#9c7c49"/>
      <circle id="Ellipse_278" data-name="Ellipse 278" cx="1.5" cy="1.5" r="1.5" transform="translate(-12398.375 -9425.375)" fill="#9c7c49"/>
      <circle id="Ellipse_279" data-name="Ellipse 279" cx="1.5" cy="1.5" r="1.5" transform="translate(-12398.375 -9420.375)" fill="#9c7c49"/>
      <circle id="Ellipse_280" data-name="Ellipse 280" cx="1.5" cy="1.5" r="1.5" transform="translate(-12398.375 -9415.375)" fill="#9c7c49"/>
      <circle id="Ellipse_281" data-name="Ellipse 281" cx="1.5" cy="1.5" r="1.5" transform="translate(-12403.375 -9430.375)" fill="#9c7c49"/>
      <circle id="Ellipse_282" data-name="Ellipse 282" cx="1.5" cy="1.5" r="1.5" transform="translate(-12403.375 -9425.375)" fill="#9c7c49"/>
      <circle id="Ellipse_283" data-name="Ellipse 283" cx="1.5" cy="1.5" r="1.5" transform="translate(-12403.375 -9420.375)" fill="#9c7c49"/>
      <circle id="Ellipse_284" data-name="Ellipse 284" cx="1.5" cy="1.5" r="1.5" transform="translate(-12403.375 -9415.375)" fill="#9c7c49"/>
      <circle id="Ellipse_285" data-name="Ellipse 285" cx="1.5" cy="1.5" r="1.5" transform="translate(-12393.375 -9430.375)" fill="#9c7c49"/>
      <circle id="Ellipse_286" data-name="Ellipse 286" cx="1.5" cy="1.5" r="1.5" transform="translate(-12393.375 -9425.375)" fill="#9c7c49"/>
      <circle id="Ellipse_287" data-name="Ellipse 287" cx="1.5" cy="1.5" r="1.5" transform="translate(-12393.375 -9420.375)" fill="#9c7c49"/>
      <circle id="Ellipse_288" data-name="Ellipse 288" cx="1.5" cy="1.5" r="1.5" transform="translate(-12393.375 -9415.375)" fill="#9c7c49"/>
    </g>
  </g>
</svg>
