<svg width="43" height="54" xmlns="http://www.w3.org/2000/svg" xmlns:xlink="http://www.w3.org/1999/xlink" xmlns:svgjs="http://svgjs.com/svgjs" viewBox="37 630 43 54"><svg width="43" height="35" xmlns="http://www.w3.org/2000/svg" xmlns:xlink="http://www.w3.org/1999/xlink" xmlns:svgjs="http://svgjs.com/svgjs" viewBox="37 649 43 35" x="37" y="649"><svg width="21" height="35" xmlns="http://www.w3.org/2000/svg" xmlns:xlink="http://www.w3.org/1999/xlink" xmlns:svgjs="http://svgjs.com/svgjs" viewBox="0 0 21.017 35.017" fill="none" stroke-miterlimit="100" stroke-linecap="round" stroke="#9c7c49" x="48" y="649"><svg xmlns="http://www.w3.org/2000/svg" xmlns:xlink="http://www.w3.org/1999/xlink" width="21" height="35"><path paint-order="stroke fill markers" d="M1.645.224h17.71c.553 0 1 .446 1 .999v31.95a1 1 0 0 1-1 1H1.645a1 1 0 0 1-1-1V1.224c0-.553.447-1 1-1z"/></svg></svg><svg width="12" height="26" xmlns="http://www.w3.org/2000/svg" xmlns:xlink="http://www.w3.org/1999/xlink" xmlns:svgjs="http://svgjs.com/svgjs" viewBox="0 0 12.017 26.017" fill="none" stroke-miterlimit="100" stroke-linecap="round" stroke="#9c7c49" x="68" y="654"><svg xmlns="http://www.w3.org/2000/svg" xmlns:xlink="http://www.w3.org/1999/xlink" width="12" height="26"><path paint-order="stroke fill markers" d="M.355 25.59h8.959c.99 0 1.792-.803 1.792-1.792V2.296c0-.989-.803-1.791-1.792-1.791H.354V25.59z"/></svg></svg><svg width="12" height="26" xmlns="http://www.w3.org/2000/svg" xmlns:xlink="http://www.w3.org/1999/xlink" xmlns:svgjs="http://svgjs.com/svgjs" viewBox="0 0 12.017 26.017" fill="none" stroke-miterlimit="100" stroke-linecap="round" stroke="#9c7c49" x="37" y="654"><svg xmlns="http://www.w3.org/2000/svg" xmlns:xlink="http://www.w3.org/1999/xlink" width="12" height="26"><path paint-order="stroke fill markers" d="M11.645.505h-8.96c-.988 0-1.79.802-1.79 1.791v21.502c0 .989.802 1.792 1.79 1.792h8.96V.505z"/></svg></svg><svg width="5" height="4" xmlns="http://www.w3.org/2000/svg" xmlns:xlink="http://www.w3.org/1999/xlink" xmlns:svgjs="http://svgjs.com/svgjs" viewBox="0 0 5.017 4.017" fill="none" stroke-miterlimit="100" stroke-linecap="round" stroke="#9c7c49" x="71" y="658"><svg xmlns="http://www.w3.org/2000/svg" xmlns:xlink="http://www.w3.org/1999/xlink" width="5" height="4"><path paint-order="stroke fill markers" d="M.939.088h3.583v3.584H.94V.088z"/></svg></svg><svg width="5" height="4" xmlns="http://www.w3.org/2000/svg" xmlns:xlink="http://www.w3.org/1999/xlink" xmlns:svgjs="http://svgjs.com/svgjs" viewBox="0 0 5.017 4.017" fill="none" stroke-miterlimit="100" stroke-linecap="round" stroke="#9c7c49" x="71" y="665"><svg xmlns="http://www.w3.org/2000/svg" xmlns:xlink="http://www.w3.org/1999/xlink" width="5" height="4"><path paint-order="stroke fill markers" d="M.939.256h3.583v3.583H.94V.256z"/></svg></svg><svg width="5" height="5" xmlns="http://www.w3.org/2000/svg" xmlns:xlink="http://www.w3.org/1999/xlink" xmlns:svgjs="http://svgjs.com/svgjs" viewBox="0 0 5.017 5.017" fill="none" stroke-miterlimit="100" stroke-linecap="round" stroke="#9c7c49" x="71" y="672"><svg xmlns="http://www.w3.org/2000/svg" xmlns:xlink="http://www.w3.org/1999/xlink" width="5" height="5"><path paint-order="stroke fill markers" d="M.939.423h3.583v3.583H.94V.423z"/></svg></svg><svg width="5" height="4" xmlns="http://www.w3.org/2000/svg" xmlns:xlink="http://www.w3.org/1999/xlink" xmlns:svgjs="http://svgjs.com/svgjs" viewBox="0 0 5.017 4.017" fill="none" stroke-miterlimit="100" stroke-linecap="round" stroke="#9c7c49" x="41" y="658"><svg xmlns="http://www.w3.org/2000/svg" xmlns:xlink="http://www.w3.org/1999/xlink" width="5" height="4"><path paint-order="stroke fill markers" d="M.478.088H4.06v3.584H.478V.088z"/></svg></svg><svg width="5" height="4" xmlns="http://www.w3.org/2000/svg" xmlns:xlink="http://www.w3.org/1999/xlink" xmlns:svgjs="http://svgjs.com/svgjs" viewBox="0 0 5.017 4.017" fill="none" stroke-miterlimit="100" stroke-linecap="round" stroke="#9c7c49" x="41" y="665"><svg xmlns="http://www.w3.org/2000/svg" xmlns:xlink="http://www.w3.org/1999/xlink" width="5" height="4"><path paint-order="stroke fill markers" d="M.478.256H4.06v3.583H.478V.256z"/></svg></svg><svg width="5" height="5" xmlns="http://www.w3.org/2000/svg" xmlns:xlink="http://www.w3.org/1999/xlink" xmlns:svgjs="http://svgjs.com/svgjs" viewBox="0 0 5.017 5.017" fill="none" stroke-miterlimit="100" stroke-linecap="round" stroke="#9c7c49" x="41" y="672"><svg xmlns="http://www.w3.org/2000/svg" xmlns:xlink="http://www.w3.org/1999/xlink" width="5" height="5"><path paint-order="stroke fill markers" d="M.478.423H4.06v3.583H.478V.423z"/></svg></svg><svg width="4" height="5" xmlns="http://www.w3.org/2000/svg" xmlns:xlink="http://www.w3.org/1999/xlink" xmlns:svgjs="http://svgjs.com/svgjs" viewBox="0 0 4.017 5.017" fill="none" stroke-miterlimit="100" stroke-linecap="round" stroke="#9c7c49" x="52" y="652"><svg xmlns="http://www.w3.org/2000/svg" xmlns:xlink="http://www.w3.org/1999/xlink" width="4" height="5"><path paint-order="stroke fill markers" d="M.229.713h3.583v3.583H.23V.713z"/></svg></svg><svg width="4" height="5" xmlns="http://www.w3.org/2000/svg" xmlns:xlink="http://www.w3.org/1999/xlink" xmlns:svgjs="http://svgjs.com/svgjs" viewBox="0 0 4.017 5.017" fill="none" stroke-miterlimit="100" stroke-linecap="round" stroke="#9c7c49" x="61" y="652"><svg xmlns="http://www.w3.org/2000/svg" xmlns:xlink="http://www.w3.org/1999/xlink" width="4" height="5"><path paint-order="stroke fill markers" d="M.188.713H3.77v3.583H.188V.713z"/></svg></svg><svg width="4" height="5" xmlns="http://www.w3.org/2000/svg" xmlns:xlink="http://www.w3.org/1999/xlink" xmlns:svgjs="http://svgjs.com/svgjs" viewBox="0 0 4.017 5.017" fill="none" stroke-miterlimit="100" stroke-linecap="round" stroke="#9c7c49" x="52" y="659"><svg xmlns="http://www.w3.org/2000/svg" xmlns:xlink="http://www.w3.org/1999/xlink" width="4" height="5"><path paint-order="stroke fill markers" d="M.229.88h3.583v3.583H.23V.88z"/></svg></svg><svg width="4" height="5" xmlns="http://www.w3.org/2000/svg" xmlns:xlink="http://www.w3.org/1999/xlink" xmlns:svgjs="http://svgjs.com/svgjs" viewBox="0 0 4.017 5.017" fill="none" stroke-miterlimit="100" stroke-linecap="round" stroke="#9c7c49" x="61" y="659"><svg xmlns="http://www.w3.org/2000/svg" xmlns:xlink="http://www.w3.org/1999/xlink" width="4" height="5"><path paint-order="stroke fill markers" d="M.188.88H3.77v3.583H.188V.88z"/></svg></svg><svg width="4" height="4" xmlns="http://www.w3.org/2000/svg" xmlns:xlink="http://www.w3.org/1999/xlink" xmlns:svgjs="http://svgjs.com/svgjs" viewBox="0 0 4.017 4.017" fill="none" stroke-miterlimit="100" stroke-linecap="round" stroke="#9c7c49" x="52" y="667"><svg xmlns="http://www.w3.org/2000/svg" xmlns:xlink="http://www.w3.org/1999/xlink" width="4" height="4"><path paint-order="stroke fill markers" d="M.229.047h3.583v3.584H.23V.047z"/></svg></svg><svg width="4" height="4" xmlns="http://www.w3.org/2000/svg" xmlns:xlink="http://www.w3.org/1999/xlink" xmlns:svgjs="http://svgjs.com/svgjs" viewBox="0 0 4.017 4.017" fill="none" stroke-miterlimit="100" stroke-linecap="round" stroke="#9c7c49" x="61" y="667"><svg xmlns="http://www.w3.org/2000/svg" xmlns:xlink="http://www.w3.org/1999/xlink" width="4" height="4"><path paint-order="stroke fill markers" d="M.188.047H3.77v3.584H.188V.047z"/></svg></svg><svg width="7" height="8" xmlns="http://www.w3.org/2000/svg" xmlns:xlink="http://www.w3.org/1999/xlink" xmlns:svgjs="http://svgjs.com/svgjs" viewBox="0 0 7.017 8.017" fill="none" stroke-miterlimit="100" stroke-linecap="round" stroke="#9c7c49" x="55" y="676"><svg xmlns="http://www.w3.org/2000/svg" xmlns:xlink="http://www.w3.org/1999/xlink" width="7" height="8"><path paint-order="stroke fill markers" d="M.812.006h5.376v7.168H.812V.006z"/></svg></svg></svg><svg width="37" height="16" xmlns="http://www.w3.org/2000/svg" xmlns:xlink="http://www.w3.org/1999/xlink" xmlns:svgjs="http://svgjs.com/svgjs" viewBox="40 630 37 16" x="40" y="630"><svg width="10" height="11" xmlns="http://www.w3.org/2000/svg" xmlns:xlink="http://www.w3.org/1999/xlink" xmlns:svgjs="http://svgjs.com/svgjs" viewBox="0 0 10.017 11" fill="none" stroke-miterlimit="100" stroke-linecap="round" stroke="#9c7c49" x="40" y="635"><svg xmlns="http://www.w3.org/2000/svg" xmlns:xlink="http://www.w3.org/1999/xlink" width="10" height="11"><path paint-order="stroke fill markers" d="M4.855.739l1.489 3.17 3.327.509-2.408 2.467.569 3.485-2.977-1.645L1.88 10.37l.568-3.485L.04 4.418l3.328-.508L4.855.739z"/></svg></svg><svg width="15" height="16" xmlns="http://www.w3.org/2000/svg" xmlns:xlink="http://www.w3.org/1999/xlink" xmlns:svgjs="http://svgjs.com/svgjs" viewBox="0 0 15.017 16.017" fill="none" stroke-miterlimit="100" stroke-linecap="round" stroke="#9c7c49" x="51" y="630"><svg xmlns="http://www.w3.org/2000/svg" xmlns:xlink="http://www.w3.org/1999/xlink" width="15" height="16"><path paint-order="stroke fill markers" d="M7.5.923l2.232 4.756 4.992.762-3.612 3.702.853 5.227L7.5 12.902 3.035 15.37l.853-5.227L.276 6.44l4.992-.762L7.5.923z"/></svg></svg><svg width="10" height="11" xmlns="http://www.w3.org/2000/svg" xmlns:xlink="http://www.w3.org/1999/xlink" xmlns:svgjs="http://svgjs.com/svgjs" viewBox="0 0 10.017 11" fill="none" stroke-miterlimit="100" stroke-linecap="round" stroke="#9c7c49" x="67" y="635"><svg xmlns="http://www.w3.org/2000/svg" width="10" height="11"><path paint-order="stroke fill markers" d="M5.144.739l1.489 3.17 3.327.509-2.407 2.467.568 3.485-2.977-1.645-2.976 1.645.569-3.485L.329 4.418l3.327-.508L5.144.739z"/></svg></svg></svg></svg>