<svg width="43" height="37" xmlns="http://www.w3.org/2000/svg" xmlns:xlink="http://www.w3.org/1999/xlink" xmlns:svgjs="http://svgjs.com/svgjs" viewBox="65 191 43 37"><svg width="20" height="29" xmlns="http://www.w3.org/2000/svg" xmlns:xlink="http://www.w3.org/1999/xlink" xmlns:svgjs="http://svgjs.com/svgjs" viewBox="0 0 20.017 29.017" fill="none" stroke-miterlimit="100" stroke-linecap="round" stroke="#9c7c49" x="65" y="199"><svg xmlns="http://www.w3.org/2000/svg" xmlns:xlink="http://www.w3.org/1999/xlink" width="20" height="29"><path paint-order="stroke fill markers" d="M19.753 28.41H.565V3.9L19.753.13v28.28"/></svg></svg><svg width="10" height="14" xmlns="http://www.w3.org/2000/svg" xmlns:xlink="http://www.w3.org/1999/xlink" xmlns:svgjs="http://svgjs.com/svgjs" viewBox="0 0 10.017 14.017" fill="none" stroke-miterlimit="100" stroke-linecap="round" stroke="#9c7c49" x="70" y="214"><svg xmlns="http://www.w3.org/2000/svg" xmlns:xlink="http://www.w3.org/1999/xlink" width="10" height="14"><path paint-order="stroke fill markers" d="M.807 13.41V.213h8.704V13.41H.807"/></svg></svg><svg width="17" height="12" xmlns="http://www.w3.org/2000/svg" xmlns:xlink="http://www.w3.org/1999/xlink" xmlns:svgjs="http://svgjs.com/svgjs" viewBox="0 0 17.017 12.017" fill="none" stroke-miterlimit="100" stroke-linecap="round" stroke="#9c7c49" x="87" y="206"><svg xmlns="http://www.w3.org/2000/svg" xmlns:xlink="http://www.w3.org/1999/xlink" width="17" height="12"><path paint-order="stroke fill markers" d="M.983.28h15.725V11.87H.983V.28z"/></svg></svg><svg width="24" height="37" xmlns="http://www.w3.org/2000/svg" xmlns:xlink="http://www.w3.org/1999/xlink" xmlns:svgjs="http://svgjs.com/svgjs" viewBox="0 0 24.017 37.017" fill="none" stroke-miterlimit="100" stroke-linecap="round" stroke="#9c7c49" x="84" y="191"><svg xmlns="http://www.w3.org/2000/svg" xmlns:xlink="http://www.w3.org/1999/xlink" width="24" height="37"><path paint-order="stroke fill markers" d="M19.942 6.97V2.474h-5.757v2.755L.753.589V36.41H23.78V8.13l-3.838-1.16z"/></svg></svg><svg width="16" height="0" xmlns="http://www.w3.org/2000/svg" xmlns:xlink="http://www.w3.org/1999/xlink" xmlns:svgjs="http://svgjs.com/svgjs" fill="none" stroke-miterlimit="100" stroke-linecap="round" stroke="#9c7c49" x="87" y="212"><svg xmlns="http://www.w3.org/2000/svg" xmlns:xlink="http://www.w3.org/1999/xlink" width="16" height="0"><path paint-order="stroke fill markers" d="M.983.718h0"/></svg></svg><svg width="0" height="12" xmlns="http://www.w3.org/2000/svg" xmlns:xlink="http://www.w3.org/1999/xlink" xmlns:svgjs="http://svgjs.com/svgjs" fill="none" stroke-miterlimit="100" stroke-linecap="round" stroke="#9c7c49" x="95" y="206"><svg xmlns="http://www.w3.org/2000/svg" width="0" height="12"><path paint-order="stroke fill markers" d="M.845.28v0"/></svg></svg></svg>