<svg width="46" height="33" xmlns="http://www.w3.org/2000/svg" xmlns:xlink="http://www.w3.org/1999/xlink" xmlns:svgjs="http://svgjs.com/svgjs" viewBox="36 608 46 33"><svg width="46" height="11" xmlns="http://www.w3.org/2000/svg" xmlns:xlink="http://www.w3.org/1999/xlink" xmlns:svgjs="http://svgjs.com/svgjs" viewBox="0 0 46.017 11" fill="none" stroke-miterlimit="100" stroke="#9c7c49" x="36" y="621"><svg xmlns="http://www.w3.org/2000/svg" xmlns:xlink="http://www.w3.org/1999/xlink" width="46" height="11"><path paint-order="stroke fill markers" d="M36.804 10.992c2.475-4.25 6.683-4.561 8.91-9.998H.174v5.999l1.98 2.999 34.65 1"/></svg></svg><svg width="40" height="5" xmlns="http://www.w3.org/2000/svg" xmlns:xlink="http://www.w3.org/1999/xlink" xmlns:svgjs="http://svgjs.com/svgjs" viewBox="0 0 40.017 5.017" fill="none" stroke-miterlimit="100" stroke="#9c7c49" x="36" y="629"><svg xmlns="http://www.w3.org/2000/svg" xmlns:xlink="http://www.w3.org/1999/xlink" width="40" height="5"><path paint-order="stroke fill markers" d="M39.443 4.814l-4.185-3.31c-.939-.744-2.164-.654-3.025.22L30.67 3.31c-.876.891-2.13.965-3.073.18l-2.35-1.953c-.92-.764-2.14-.714-3.015.125l-1.787 1.71c-.894.855-2.144.887-3.066.079l-2.14-1.871c-.903-.79-2.119-.78-3.012.028l-2.006 1.815c-.912.825-2.16.817-3.065-.02L5.234 1.629C4.348.809 3.131.783 2.222 1.562L0 3.468l39.443 1.346"/></svg></svg><svg width="40" height="5" xmlns="http://www.w3.org/2000/svg" xmlns:xlink="http://www.w3.org/1999/xlink" xmlns:svgjs="http://svgjs.com/svgjs" viewBox="0 0 40.017 5.017" fill="none" stroke-miterlimit="100" stroke="#9c7c49" x="42" y="636"><svg xmlns="http://www.w3.org/2000/svg" xmlns:xlink="http://www.w3.org/1999/xlink" width="40" height="5"><path paint-order="stroke fill markers" d="M39.748 3.489l-2.35-1.954c-.92-.765-2.14-.715-3.016.124l-1.786 1.71c-.895.855-2.143.888-3.067.08l-2.14-1.872c-.901-.79-2.118-.779-3.01.03L22.372 3.42c-.913.825-2.16.817-3.065-.019l-1.921-1.776c-.887-.818-2.104-.845-3.013-.065L12.15 3.466c-.93.797-2.18.749-3.068-.12l-1.7-1.664c-.87-.852-2.091-.917-3.018-.16L.327 4.811l39.42-1.323"/></svg></svg><svg width="13" height="6" xmlns="http://www.w3.org/2000/svg" xmlns:xlink="http://www.w3.org/1999/xlink" xmlns:svgjs="http://svgjs.com/svgjs" viewBox="0 0 13.017 6.017" fill="none" stroke-miterlimit="100" stroke="#9c7c49" x="52" y="611"><svg xmlns="http://www.w3.org/2000/svg" xmlns:xlink="http://www.w3.org/1999/xlink" width="13" height="6"><path paint-order="stroke fill markers" d="M12.884 5.998L7.444 1H.015l12.87 4.998"/></svg></svg><svg width="35" height="14" xmlns="http://www.w3.org/2000/svg" xmlns:xlink="http://www.w3.org/1999/xlink" xmlns:svgjs="http://svgjs.com/svgjs" viewBox="0 0 35.017 14.017" fill="none" stroke-miterlimit="100" stroke="#9c7c49" x="38" y="608"><svg xmlns="http://www.w3.org/2000/svg" xmlns:xlink="http://www.w3.org/1999/xlink" width="35" height="14"><path paint-order="stroke fill markers" d="M18.544 3.998L15.994 0H8.629L7.085 3.998h-2.97l-3.96 9.997h34.65L30.35 8.997h-9.405l-2.4-4.999"/></svg></svg><svg width="2" height="0" xmlns="http://www.w3.org/2000/svg" xmlns:xlink="http://www.w3.org/1999/xlink" xmlns:svgjs="http://svgjs.com/svgjs" fill="none" stroke-miterlimit="100" stroke="#9c7c49" x="54" y="616"><svg xmlns="http://www.w3.org/2000/svg" xmlns:xlink="http://www.w3.org/1999/xlink" width="2" height="0"><path paint-order="stroke fill markers" d="M2.964.996H.984h1.98"/></svg></svg><svg width="2" height="0" xmlns="http://www.w3.org/2000/svg" xmlns:xlink="http://www.w3.org/1999/xlink" xmlns:svgjs="http://svgjs.com/svgjs" fill="none" stroke-miterlimit="100" stroke="#9c7c49" x="51" y="616"><svg xmlns="http://www.w3.org/2000/svg" xmlns:xlink="http://www.w3.org/1999/xlink" width="2" height="0"><path paint-order="stroke fill markers" d="M2.004.996H.024h1.98"/></svg></svg><svg width="2" height="0" xmlns="http://www.w3.org/2000/svg" xmlns:xlink="http://www.w3.org/1999/xlink" xmlns:svgjs="http://svgjs.com/svgjs" fill="none" stroke-miterlimit="100" stroke="#9c7c49" x="47" y="616"><svg xmlns="http://www.w3.org/2000/svg" xmlns:xlink="http://www.w3.org/1999/xlink" width="2" height="0"><path paint-order="stroke fill markers" d="M2.045.996H.065h1.98"/></svg></svg><svg width="2" height="0" xmlns="http://www.w3.org/2000/svg" xmlns:xlink="http://www.w3.org/1999/xlink" xmlns:svgjs="http://svgjs.com/svgjs" fill="none" stroke-miterlimit="100" stroke="#9c7c49" x="43" y="616"><svg xmlns="http://www.w3.org/2000/svg" width="2" height="0"><path paint-order="stroke fill markers" d="M2.084.996H.104h1.98"/></svg></svg></svg>